<?xml version="1.0" encoding="iso-8859-1"?>
<!-- Uploaded to: SVG Repo, www.svgrepo.com, Generator: SVG Repo Mixer Tools -->
<svg fill="#498de0" height="800px" width="800px" version="1.1" id="Layer_1" xmlns="http://www.w3.org/2000/svg" xmlns:xlink="http://www.w3.org/1999/xlink" 
	 viewBox="0 0 512 512" xml:space="preserve">
<g>
	<g>
		<path d="M495.304,66.783c-13.444,0-339.112,0-361.739,0V50.087C133.565,22.469,111.096,0,83.478,0
			C55.86,0,33.391,22.469,33.391,50.087v16.696H16.696C7.475,66.783,0,74.258,0,83.478v345.043c0,9.22,7.475,16.696,16.696,16.696
			h16.696v16.696C33.391,489.531,55.86,512,83.478,512c27.618,0,50.087-22.469,50.087-50.087v-16.696c11.762,0,332.109,0,361.739,0
			c9.22,0,16.696-7.475,16.696-16.696V83.478C512,74.258,504.525,66.783,495.304,66.783z M66.783,50.087
			c0-9.206,7.49-16.696,16.696-16.696s16.696,7.49,16.696,16.696v16.696H66.783V50.087z M100.174,461.913
			c0,9.206-7.49,16.696-16.696,16.696s-16.696-7.49-16.696-16.696v-16.696h33.391V461.913z M133.565,411.826
			c-16.473,0-90.017,0-100.174,0V100.174c16.473,0,90.017,0,100.174,0C133.565,114.753,133.565,399.116,133.565,411.826z
			 M166.957,166.957h244.87v178.087h-244.87V166.957z M478.609,411.826H166.957v-33.391h261.565c9.22,0,16.696-7.475,16.696-16.696
			V150.261c0-9.22-7.475-16.696-16.696-16.696H166.957v-33.391h311.652V411.826z"/>
	</g>
</g>
<g>
	<g>
		<path d="M250.435,278.261h-33.391c-9.22,0-16.696,7.475-16.696,16.696s7.475,16.696,16.696,16.696h33.391
			c9.22,0,16.696-7.475,16.696-16.696S259.655,278.261,250.435,278.261z"/>
	</g>
</g>
<g>
	<g>
		<path d="M361.739,278.261h-33.391c-9.22,0-16.696,7.475-16.696,16.696s7.475,16.696,16.696,16.696h33.391
			c9.22,0,16.696-7.475,16.696-16.696S370.96,278.261,361.739,278.261z"/>
	</g>
</g>
<g>
	<g>
		<path d="M361.739,200.348H217.043c-9.22,0-16.696,7.475-16.696,16.696c0,9.22,7.475,16.696,16.696,16.696h144.696
			c9.22,0,16.696-7.475,16.696-16.696C378.435,207.823,370.96,200.348,361.739,200.348z"/>
	</g>
</g>
</svg>