<?xml version="1.0" encoding="iso-8859-1"?>
<!-- Uploaded to: SVG Repo, www.svgrepo.com, Generator: SVG Repo Mixer Tools -->
<svg fill="#000000" height="800px" width="800px" version="1.1" id="Layer_1" xmlns="http://www.w3.org/2000/svg" xmlns:xlink="http://www.w3.org/1999/xlink" 
	 viewBox="0 0 512 512" xml:space="preserve">
<g>
	<g>
		<path d="M133.565,66.783V50.087C133.565,22.468,111.097,0,83.478,0S33.391,22.468,33.391,50.087v16.696H16.696
			C7.473,66.783,0,74.256,0,83.478v345.043c0,9.223,7.473,16.696,16.696,16.696h16.696v16.696c0,27.619,22.468,50.087,50.087,50.087
			s50.087-22.468,50.087-50.087v-16.696c11.509,0,22.544,0,33.391,0c0-180.367,0-206.449,0-209.483c0-0.275,0-0.362,0-0.356
			c0-2.788,0-25.039,0-168.596C156.109,66.783,145.074,66.783,133.565,66.783z M100.174,461.913c0,9.206-7.49,16.696-16.696,16.696
			s-16.696-7.49-16.696-16.696v-16.696h33.391V461.913z M100.174,66.783H66.783V50.087c0-9.206,7.49-16.696,16.696-16.696
			s16.696,7.49,16.696,16.696V66.783z"/>
	</g>
</g>
<g>
	<g>
		<path d="M495.304,66.783c-121.909,0-199.559,0-294.956,0v33.391h278.261v311.652H200.348v33.391c95.401,0,173.023,0,294.956,0
			c9.217,0,16.696-7.473,16.696-16.696V83.478C512,74.256,504.521,66.783,495.304,66.783z"/>
	</g>
</g>
<g>
	<g>
		<path d="M428.522,133.565H200.348v244.87h228.174c9.223,0,16.696-7.473,16.696-16.696V150.261
			C445.217,141.038,437.744,133.565,428.522,133.565z M283.826,311.652h-33.391c-9.223,0-16.696-7.473-16.696-16.696
			c0-9.223,7.473-16.696,16.696-16.696h33.391c9.223,0,16.696,7.473,16.696,16.696C300.522,304.179,293.049,311.652,283.826,311.652
			z M395.13,311.652h-33.391c-9.223,0-16.696-7.473-16.696-16.696c0-9.223,7.473-16.696,16.696-16.696h33.391
			c9.223,0,16.696,7.473,16.696,16.696C411.826,304.179,404.353,311.652,395.13,311.652z M395.13,233.739H250.435
			c-9.223,0-16.696-7.473-16.696-16.696c0-9.223,7.473-16.696,16.696-16.696H395.13c9.223,0,16.696,7.473,16.696,16.696
			C411.826,226.266,404.353,233.739,395.13,233.739z"/>
	</g>
</g>
</svg>